
***** We.Own.The.Night.2007.SWESUB.DVDRip.XviD-Zen_Bud.avi *****

Format                           : AVI
File size                        : 1.36 GiB
Duration                         : 1h 56mn
Overall bit rate                 : 1 679 Kbps


Video

Format                           : MPEG-4 Visual
Codec ID/Hint                    : XviD
Duration                         : 1h 56mn
Bit rate                         : 1 541 Kbps
Width                            : 720 pixels
Height                           : 460 pixels
Display aspect ratio             : 1.565
Stream size                      : 1.25 GiB (92%)
Writing library                  : XviD 1.2.1 (UTC 2008-12-04)

Audio

Format                           : MPEG Audio
Codec ID/Hint                    : MP3
Duration                         : 1h 56mn
Bit rate                         : 128 Kbps
Channel(s)                       : 2 channels
Sampling rate                    : 48.0 KHz
Stream size                      : 106 MiB (8%)



